<svg width="20" height="20" viewBox="0 0 20 20" fill="none" xmlns="http://www.w3.org/2000/svg">
<path fill-rule="evenodd" clip-rule="evenodd" d="M1.33722 5.06628C1.43785 5.0232 1.54597 5.00037 1.65542 4.99908C1.76487 4.9978 1.8735 5.01808 1.97511 5.05879C2.07672 5.09949 2.16931 5.15982 2.2476 5.23631C2.32589 5.31281 2.38834 5.40398 2.43139 5.50462L1.66556 5.83295L2.43222 5.50462L2.43472 5.51128L2.45222 5.54878L2.53056 5.71045C2.60222 5.85378 2.71306 6.06378 2.86389 6.31795C3.26161 6.9861 3.72803 7.61088 4.25556 8.18212C4.41367 8.35222 4.57765 8.51676 4.74722 8.67545C5.98222 9.83295 7.70806 10.833 9.99889 10.833C10.917 10.8371 11.8276 10.6669 12.6822 10.3313C13.7047 9.92878 14.5606 9.32295 15.2622 8.66628C16.2006 7.77584 16.972 6.72452 17.5397 5.56212L17.5622 5.51378L17.5664 5.50462C17.6555 5.30462 17.8198 5.14775 18.0237 5.06791C18.2276 4.98807 18.4547 4.99167 18.6559 5.07795C18.8572 5.16423 19.0164 5.32624 19.0991 5.52897C19.1818 5.73169 19.1815 5.95883 19.0981 6.16128L19.0964 6.16545L19.0931 6.17212L19.0839 6.19378L19.0506 6.26628C18.8655 6.65176 18.6593 7.02677 18.4331 7.38962C18.0165 8.05874 17.5392 8.68806 17.0072 9.26962L17.6714 9.93378C17.8278 10.09 17.9156 10.302 17.9157 10.5231C17.9158 10.7441 17.8281 10.9562 17.6718 11.1125C17.5155 11.2689 17.3036 11.3568 17.0825 11.3569C16.8615 11.3569 16.6494 11.2692 16.4931 11.113L15.7931 10.413C15.3004 10.8111 14.7711 11.1616 14.2122 11.4596L14.8639 12.4613C14.9254 12.553 14.968 12.656 14.9894 12.7643C15.0107 12.8726 15.0103 12.984 14.9882 13.0922C14.9661 13.2004 14.9228 13.303 14.8606 13.3943C14.7985 13.4856 14.7189 13.5636 14.6264 13.6238C14.5339 13.684 14.4303 13.7252 14.3217 13.7451C14.2131 13.765 14.1017 13.7631 13.9938 13.7395C13.886 13.7159 13.7839 13.6712 13.6935 13.6078C13.6031 13.5445 13.5262 13.4638 13.4672 13.3704L12.6456 12.1088C12.0797 12.2821 11.4756 12.4046 10.8322 12.4621V13.7496C10.8322 13.9706 10.7444 14.1826 10.5881 14.3389C10.4319 14.4952 10.2199 14.5829 9.99889 14.5829C9.77787 14.5829 9.56591 14.4952 9.40963 14.3389C9.25335 14.1826 9.16556 13.9706 9.16556 13.7496V12.4629C8.51972 12.4046 7.91556 12.2821 7.35139 12.1088L6.53056 13.3704C6.40731 13.5492 6.21917 13.6728 6.00618 13.7149C5.7932 13.757 5.57218 13.7144 5.39017 13.596C5.20817 13.4776 5.07954 13.2929 5.03168 13.0811C4.98381 12.8693 5.02048 12.6473 5.13389 12.4621L5.78556 11.4596C5.20222 11.1513 4.67556 10.7929 4.20472 10.4121L3.50472 11.1121C3.34755 11.2639 3.13705 11.3479 2.91855 11.346C2.70006 11.3441 2.49105 11.2565 2.33654 11.102C2.18203 10.9475 2.09439 10.7384 2.09249 10.52C2.0906 10.3015 2.17459 10.091 2.32639 9.93378L2.99056 9.26962C2.40101 8.62477 1.87885 7.92139 1.43222 7.17045C1.25435 6.87047 1.09002 6.56266 0.939722 6.24795L0.912222 6.18795L0.903889 6.17045L0.902222 6.16462L0.901389 6.16295C0.898889 6.16295 0.898889 6.16128 1.66556 5.83295L0.899722 6.16212C0.856488 6.0615 0.833509 5.95335 0.8321 5.84384C0.830691 5.73434 0.85088 5.62563 0.891512 5.52394C0.932144 5.42224 0.992423 5.32955 1.0689 5.25117C1.14538 5.17278 1.23656 5.10941 1.33722 5.06628Z" fill="black" fill-opacity="0.5"/>
</svg>
