<svg width="150" height="150" viewBox="0 0 150 150" fill="none" xmlns="http://www.w3.org/2000/svg">
<circle cx="75" cy="75" r="75" fill="#DD463E" fill-opacity="0.1"/>
<circle cx="75" cy="75" r="66" fill="#DD463E" fill-opacity="0.1"/>
<path d="M85.8172 119.88C59.8592 126.455 36.2242 111.727 29.5022 86.0002C23.0962 61.3292 37.7322 34.5052 62.8592 28.3832C95.3672 20.2602 124.997 49.1922 120.514 81.7532C118.254 100.847 104.234 115.325 85.8172 119.88ZM85.8172 119.88C97.4952 117.074 107.092 108.431 112.598 97.9742C128.087 70.8712 111.843 35.1602 80.8302 29.9922C48.9892 24.8722 24.0642 54.8092 31.8292 85.4162C37.2802 108.361 62.4032 125.745 85.8172 119.88Z" fill="#231F20"/>
<path d="M74.4858 112.406C95.9437 112.406 113.339 95.5304 113.339 74.7131C113.339 53.8959 95.9437 37.0201 74.4858 37.0201C53.0279 37.0201 35.6328 53.8959 35.6328 74.7131C35.6328 95.5304 53.0279 112.406 74.4858 112.406Z" fill="#DD463E"/>
<path d="M105.071 90.3861C104.432 89.9831 107.196 85.0231 108.214 78.2971C109.333 71.5871 108.244 66.0141 108.977 65.8291C109.298 65.7441 110.014 67.0611 110.543 69.3951C111.075 71.7181 111.319 75.0741 110.747 78.7001C110.166 82.3251 108.893 85.4391 107.666 87.4821C106.439 89.5371 105.35 90.5661 105.071 90.3861Z" fill="#231F20"/>
<path d="M91.4347 104.214C91.0237 103.63 91.4437 102.629 92.1817 101.776C92.9297 100.932 93.8667 100.383 94.4997 100.712C95.1247 101.031 95.0797 102.36 94.1117 103.465C93.1447 104.57 91.8337 104.792 91.4347 104.214Z" fill="#231F20"/>
<path d="M53.0071 46.7211C53.4171 47.2181 49.9971 50.5691 46.6361 55.3171C43.2361 60.0361 41.1762 64.3591 40.5732 64.1321C40.2972 64.0251 40.4602 62.7791 41.1392 60.8961C41.8142 59.0161 43.0512 56.5171 44.8272 54.0261C46.6082 51.5371 48.5702 49.5571 50.1292 48.3081C51.6912 47.0531 52.8161 46.4951 53.0071 46.7211Z" fill="white"/>
<path d="M57.0047 103.887C56.6867 104.386 53.0197 102.514 49.6877 98.7831C46.3377 95.0691 44.8727 91.2211 45.4027 90.9591C45.9617 90.6561 48.1927 93.8161 51.3417 97.2991C54.4647 100.805 57.3667 103.364 57.0047 103.887Z" fill="white"/>
<path d="M61.7229 106.432C61.5289 107.014 60.9299 107.339 60.3859 107.158C59.8419 106.977 59.5579 106.358 59.7529 105.775C59.9469 105.193 60.5449 104.868 61.0889 105.049C61.6329 105.231 61.9169 105.85 61.7229 106.432Z" fill="white"/>
<path d="M95.3389 87.5385C95.5819 87.3675 94.3409 84.9795 91.0699 82.2045C89.4449 80.8235 87.2939 79.4075 84.6889 78.2645C82.0889 77.1195 79.0189 76.2905 75.7229 76.0515C72.4239 75.8435 69.2699 76.2495 66.5399 77.0335C63.8039 77.8135 61.4819 78.9265 59.6849 80.0755C56.0689 82.3825 54.5169 84.5815 54.7349 84.7835C55.0079 85.0835 56.9659 83.4165 60.5679 81.6585C64.1269 79.8925 69.5329 78.2065 75.5489 78.6095C81.5649 79.0225 86.6939 81.4235 89.9819 83.6545C93.3119 85.8835 95.0269 87.7985 95.3389 87.5385Z" fill="#231F20"/>
</svg>
