<svg width="25" height="24" viewBox="0 0 25 24" fill="none" xmlns="http://www.w3.org/2000/svg">
<rect width="25" height="24" rx="5" fill="#F15A22"/>
<path d="M12.5325 16.1824C11.2154 16.1824 9.86412 15.1229 8.43497 14.0013C7.10679 12.9603 5.73471 11.8855 4.36029 11.6139L4.53268 10.738C6.11695 11.0494 7.57654 12.1929 8.98491 13.2986C10.2903 14.323 11.5233 15.2888 12.5325 15.2888C13.5416 15.2888 14.7747 14.323 16.08 13.2986C17.4899 12.1929 18.9483 11.0494 20.5323 10.738L20.7046 11.6139C19.3291 11.8841 17.9581 12.9603 16.6311 14.0013C15.2008 15.1229 13.8495 16.1824 12.5325 16.1824ZM12.5325 13.3665C11.2154 13.3665 9.86412 12.307 8.43497 11.1855C7.10796 10.1447 5.73588 9.06822 4.36146 8.79808L4.53385 7.92209C6.11812 8.2335 7.57771 9.377 8.98608 10.4827C10.2914 11.5071 11.5245 12.473 12.5336 12.473C13.5428 12.473 14.7759 11.5071 16.0812 10.4827C17.491 9.377 18.9495 8.2335 20.5334 7.92209L20.7058 8.79808C19.3302 9.06822 17.9593 10.1444 16.6323 11.1855C15.2008 12.307 13.8495 13.3665 12.5325 13.3665Z" fill="white"/>
<path d="M12.9788 10.1037H12.0858V18.5534H12.9788V10.1037Z" fill="white"/>
<path d="M12.5325 19C11.2154 19 9.86411 17.9405 8.43496 16.8187C7.10679 15.7782 5.73471 14.7014 4.36029 14.4319L4 14.361V5L4.53268 5.10478C6.11724 5.41736 7.57507 6.55881 8.98491 7.66543C10.2903 8.6898 11.5233 9.65564 12.5325 9.65564C13.5416 9.65564 14.7747 8.6898 16.08 7.66543C17.4899 6.55881 18.9477 5.41736 20.5323 5.10478L21.0649 5V14.3605L20.7046 14.4319C19.3291 14.702 17.9581 15.7782 16.6311 16.8193C15.2008 17.9405 13.8495 19 12.5325 19ZM4.89355 13.6416C6.33967 14.042 7.68307 15.0957 8.98549 16.1171C10.2879 17.1386 11.5239 18.1073 12.5331 18.1073C13.5422 18.1073 14.7753 17.14 16.0806 16.1171C17.386 15.0942 18.7258 14.0408 20.1714 13.6416V6.12418C18.9758 6.52866 17.7861 7.46201 16.63 8.36815C15.1996 9.48999 13.8495 10.5495 12.5325 10.5495C11.2154 10.5495 9.86411 9.48999 8.43496 8.36815C7.27947 7.46084 6.08973 6.52866 4.89355 6.12418V13.6416Z" fill="white"/>
</svg>
