<svg width="150" height="150" viewBox="0 0 150 150" fill="none" xmlns="http://www.w3.org/2000/svg">
<circle cx="75" cy="75" r="75" fill="#FFC41D" fill-opacity="0.1"/>
<circle cx="75" cy="75" r="66" fill="#FFC41D" fill-opacity="0.1"/>
<path d="M85.8172 119.88C59.8592 126.455 36.2242 111.727 29.5022 86.0002C23.0962 61.3292 37.7322 34.5052 62.8592 28.3832C95.3672 20.2602 124.997 49.1922 120.514 81.7532C118.255 100.847 104.234 115.325 85.8172 119.88ZM85.8172 119.88C97.4952 117.074 107.092 108.431 112.598 97.9742C128.087 70.8712 111.843 35.1602 80.8312 29.9922C48.9902 24.8722 24.0652 54.8092 31.8302 85.4162C37.2802 108.361 62.4032 125.745 85.8172 119.88Z" fill="#5C2300"/>
<path d="M74.4858 112.406C95.9437 112.406 113.339 95.5304 113.339 74.7131C113.339 53.8959 95.9437 37.0201 74.4858 37.0201C53.0279 37.0201 35.6328 53.8959 35.6328 74.7131C35.6328 95.5304 53.0279 112.406 74.4858 112.406Z" fill="#FFC41D"/>
<path d="M106.474 88.9141C105.782 88.5941 108.324 82.6111 108.574 74.8211C108.937 67.0351 106.873 60.8711 107.588 60.6061C107.894 60.4851 108.837 61.8931 109.713 64.4611C110.157 65.7411 110.54 67.3141 110.818 69.0891C111.072 70.8661 111.208 72.8461 111.136 74.9221C111.045 76.9971 110.754 78.9601 110.361 80.7121C109.943 82.4591 109.439 83.9981 108.895 85.2391C107.82 87.7291 106.77 89.0581 106.474 88.9141Z" fill="#5C2300"/>
<path d="M102.748 93.7791C103.067 93.9061 103.07 94.8171 102.62 96.1581C102.175 97.4941 101.231 99.2371 99.7923 100.848C98.3503 102.457 96.7243 103.589 95.4453 104.18C94.1623 104.777 93.2573 104.875 93.0953 104.572C92.7633 103.918 95.3483 102.012 97.8813 99.1381C100.455 96.3031 102.061 93.5221 102.748 93.7791Z" fill="#5C2300"/>
<path d="M55.7306 102.463C55.4216 102.962 51.2736 100.79 47.5706 96.4721C43.8426 92.1751 42.3046 87.7531 42.8426 87.5211C43.4176 87.2381 45.7416 90.9821 49.2536 95.0201C52.7316 99.0881 56.0956 101.936 55.7306 102.463Z" fill="white"/>
<path d="M79.716 80.4362C79.716 84.8362 77.373 88.4032 74.483 88.4032C71.593 88.4032 69.25 84.8362 69.25 80.4362C69.25 76.0362 71.593 72.4692 74.483 72.4692C77.373 72.4692 79.716 76.0362 79.716 80.4362Z" fill="#5C2300"/>
</svg>
