<svg width="24" height="24" viewBox="0 0 24 24" fill="none" xmlns="http://www.w3.org/2000/svg">
<path opacity="0.5" d="M12 22C7.286 22 4.929 22 3.464 20.535C2 19.072 2 16.714 2 12C2 7.286 2 4.929 3.464 3.464C4.93 2 7.286 2 12 2C16.714 2 19.071 2 20.535 3.464C22 4.93 22 7.286 22 12C22 16.714 22 19.071 20.535 20.535C19.072 22 16.714 22 12 22Z" fill="#D53232"/>
<path d="M8.96934 8.97015C9.10997 8.8297 9.30059 8.75081 9.49934 8.75081C9.69809 8.75081 9.88871 8.8297 10.0293 8.97015L11.9993 10.9402L13.9693 8.97015C14.038 8.89647 14.1208 8.83736 14.2128 8.79637C14.3048 8.75538 14.4041 8.73334 14.5048 8.73156C14.6055 8.72979 14.7055 8.74831 14.7989 8.78603C14.8923 8.82375 14.9772 8.8799 15.0484 8.95112C15.1196 9.02233 15.1757 9.10717 15.2135 9.20056C15.2512 9.29394 15.2697 9.39397 15.2679 9.49468C15.2662 9.59538 15.2441 9.69469 15.2031 9.78669C15.1621 9.87869 15.103 9.96149 15.0293 10.0302L13.0593 12.0002L15.0293 13.9702C15.103 14.0388 15.1621 14.1216 15.2031 14.2136C15.2441 14.3056 15.2662 14.4049 15.2679 14.5056C15.2697 14.6063 15.2512 14.7064 15.2135 14.7998C15.1757 14.8931 15.1196 14.978 15.0484 15.0492C14.9772 15.1204 14.8923 15.1766 14.7989 15.2143C14.7055 15.252 14.6055 15.2705 14.5048 15.2687C14.4041 15.267 14.3048 15.2449 14.2128 15.2039C14.1208 15.1629 14.038 15.1038 13.9693 15.0302L11.9993 13.0602L10.0293 15.0302C9.88716 15.1626 9.69912 15.2348 9.50482 15.2313C9.31052 15.2279 9.12513 15.1492 8.98772 15.0118C8.85031 14.8744 8.77159 14.689 8.76816 14.4947C8.76474 14.3004 8.83686 14.1123 8.96934 13.9702L10.9393 12.0002L8.96934 10.0302C8.82889 9.88953 8.75 9.6989 8.75 9.50015C8.75 9.3014 8.82889 9.11078 8.96934 8.97015Z" fill="#D53232"/>
</svg>
