<svg width="24" height="24" viewBox="0 0 24 24" fill="none" xmlns="http://www.w3.org/2000/svg">
<path d="M12 0.5C12.5621 0.5 13.1186 0.655286 13.8477 1.00977C14.5869 1.36922 15.4643 1.91278 16.6758 2.66504L19.0752 4.1543C20.2215 4.86615 21.0509 5.38137 21.6738 5.8584C22.2877 6.32853 22.6715 6.74014 22.9375 7.22754V7.22852C23.205 7.71631 23.3495 8.26995 23.4238 9.05957C23.4991 9.85953 23.5 10.8624 23.5 12.2451V14.0703C23.5 16.4242 23.4989 18.141 23.3281 19.4531C23.159 20.7525 22.8317 21.5799 22.2344 22.1982C21.6394 22.814 20.8462 23.1496 19.5977 23.3232C18.3331 23.4991 16.6772 23.5 14.4004 23.5H9.59961C7.3226 23.5 5.66678 23.4991 4.40234 23.3232C3.15413 23.1496 2.36122 22.8142 1.76562 22.1982C1.16782 21.58 0.840865 20.7527 0.671875 19.4531C0.50125 18.1408 0.5 16.4238 0.5 14.0703V12.2432C0.5 10.8613 0.50089 9.85847 0.576172 9.05859C0.65052 8.26901 0.795091 7.71555 1.0625 7.22852V7.22754C1.32921 6.73985 1.71247 6.3285 2.32617 5.8584C2.949 5.38131 3.77835 4.86623 4.9248 4.1543L7.32422 2.66504C8.53656 1.91262 9.41414 1.36924 10.1533 1.00977C10.8822 0.655301 11.438 0.5 12 0.5ZM12 14.2002C11.6287 14.2002 11.2723 14.3478 11.0098 14.6104C10.7475 14.8728 10.5997 15.2286 10.5996 15.5996V19.2002C10.5997 19.5714 10.7473 19.9279 11.0098 20.1904C11.2723 20.4529 11.6287 20.5996 12 20.5996C12.3713 20.5996 12.7277 20.4529 12.9902 20.1904C13.2527 19.9279 13.4003 19.5714 13.4004 19.2002V15.5996C13.4003 15.2286 13.2525 14.8728 12.9902 14.6104C12.7277 14.3478 12.3713 14.2002 12 14.2002Z" stroke="#F1F1F1"/>
</svg>
