<svg width="24" height="24" viewBox="0 0 24 24" fill="none" xmlns="http://www.w3.org/2000/svg">
<path fill-rule="evenodd" clip-rule="evenodd" d="M1.28832 2.76322C1.35109 2.57455 1.48622 2.41854 1.66398 2.32946C1.84175 2.24039 2.04761 2.22556 2.23632 2.28822L2.50132 2.37722L2.54132 2.39022C3.16732 2.59922 3.69632 2.77522 4.11332 2.96922C4.55532 3.17522 4.93932 3.42922 5.23032 3.83422C5.52132 4.23722 5.64232 4.68222 5.69732 5.16722C5.74932 5.62322 5.74932 6.18122 5.74932 6.84122V9.50022C5.74932 10.9352 5.75132 11.9372 5.85232 12.6922C5.95132 13.4262 6.13232 13.8142 6.40832 14.0912C6.68532 14.3682 7.07432 14.5482 7.80832 14.6472C8.56332 14.7482 9.56432 14.7502 10.9993 14.7502H17.9993C18.0978 14.7502 18.1953 14.7696 18.2863 14.8073C18.3773 14.845 18.46 14.9002 18.5296 14.9699C18.5993 15.0395 18.6545 15.1222 18.6922 15.2132C18.7299 15.3042 18.7493 15.4017 18.7493 15.5002C18.7493 15.5987 18.7299 15.6962 18.6922 15.7872C18.6545 15.8782 18.5993 15.9609 18.5296 16.0305C18.46 16.1002 18.3773 16.1554 18.2863 16.1931C18.1953 16.2308 18.0978 16.2502 17.9993 16.2502H10.9443C9.57732 16.2502 8.47432 16.2502 7.60732 16.1332C6.70732 16.0132 5.94932 15.7532 5.34732 15.1522C4.74632 14.5502 4.48732 13.7922 4.36632 12.8922C4.24932 12.0252 4.24932 10.9222 4.24932 9.55522V6.88322C4.24932 6.17022 4.24932 5.69822 4.20732 5.33722C4.16732 4.99522 4.10032 4.83022 4.01332 4.71122C3.92732 4.59122 3.79232 4.47422 3.48032 4.32922C3.15032 4.17622 2.70332 4.02522 2.02732 3.79922L1.76232 3.71122C1.57384 3.64824 1.41805 3.51303 1.32918 3.33529C1.24031 3.15754 1.22561 2.95179 1.28832 2.76322Z" fill="white"/>
<path opacity="0.5" d="M5.74219 6C5.74619 6.26 5.74785 6.54033 5.74719 6.841V9.5C5.74719 10.935 5.74919 11.937 5.85019 12.692C5.86552 12.802 5.88219 12.9047 5.90019 13H16.0202C16.9792 13 17.4582 13 17.8342 12.752C18.2102 12.504 18.3992 12.064 18.7762 11.182L19.2062 10.182C20.0152 8.292 20.4192 7.349 19.9752 6.674C19.5312 5.999 18.5032 6 16.4472 6H5.74219Z" fill="white"/>
<path d="M7.5 18C7.89782 18 8.27936 18.158 8.56066 18.4393C8.84196 18.7206 9 19.1022 9 19.5C9 19.8978 8.84196 20.2794 8.56066 20.5607C8.27936 20.842 7.89782 21 7.5 21C7.10218 21 6.72064 20.842 6.43934 20.5607C6.15804 20.2794 6 19.8978 6 19.5C6 19.1022 6.15804 18.7206 6.43934 18.4393C6.72064 18.158 7.10218 18 7.5 18ZM18 19.5C18 19.1022 17.842 18.7206 17.5607 18.4393C17.2794 18.158 16.8978 18 16.5 18C16.1022 18 15.7206 18.158 15.4393 18.4393C15.158 18.7206 15 19.1022 15 19.5C15 19.8978 15.158 20.2794 15.4393 20.5607C15.7206 20.842 16.1022 21 16.5 21C16.8978 21 17.2794 20.842 17.5607 20.5607C17.842 20.2794 18 19.8978 18 19.5Z" fill="white"/>
</svg>
