<svg width="21" height="20" viewBox="0 0 21 20" fill="none" xmlns="http://www.w3.org/2000/svg">
<path fill-rule="evenodd" clip-rule="evenodd" d="M1.24951 0.29251C1.06174 0.226471 0.855421 0.23773 0.675948 0.323809C0.496476 0.409888 0.358549 0.563737 0.29251 0.75151C0.226471 0.939283 0.23773 1.1456 0.323809 1.32507C0.409888 1.50454 0.563737 1.64247 0.75151 1.70851L1.01351 1.79951C1.68051 2.03451 2.11951 2.18951 2.44251 2.34851C2.74551 2.49751 2.87951 2.61851 2.96751 2.74651C3.05751 2.87851 3.12751 3.06051 3.16751 3.42351C3.20751 3.80351 3.20851 4.29851 3.20851 5.03851V7.76051C3.20851 9.21351 3.22251 10.2605 3.35951 11.0605C3.50551 11.9145 3.79751 12.5265 4.34451 13.1025C4.93851 13.7295 5.69051 14.0025 6.58751 14.1285C7.44551 14.2505 8.53551 14.2505 9.88051 14.2505H15.2865C16.0285 14.2505 16.6525 14.2505 17.1565 14.1885C17.6935 14.1235 18.1815 13.9795 18.6085 13.6325C19.0345 13.2845 19.2735 12.8355 19.4455 12.3235C19.6085 11.8415 19.7345 11.2305 19.8845 10.5035L20.3925 8.03451L20.3945 8.02951L20.4045 7.97751C20.5695 7.15251 20.7075 6.45851 20.7425 5.90051C20.7785 5.31451 20.7115 4.73651 20.3295 4.24051C20.0945 3.93451 19.7645 3.76151 19.4635 3.65651C19.1384 3.54945 18.8023 3.47901 18.4615 3.44651C17.7745 3.37051 16.9395 3.37051 16.1215 3.37051H4.66751L4.65751 3.26251C4.60351 2.76551 4.48751 2.31251 4.20451 1.90051C3.92051 1.48451 3.54251 1.21851 3.10251 1.00151C2.69051 0.79951 2.16651 0.61551 1.54951 0.39851L1.24951 0.29251ZM4.70951 4.87051H16.0895C16.9455 4.87051 17.6995 4.87151 18.2945 4.93751C18.5905 4.97151 18.8115 5.01751 18.9665 5.07151C19.0295 5.09034 19.0889 5.1194 19.1425 5.15751C19.2045 5.23951 19.2705 5.38751 19.2445 5.80851C19.2175 6.25251 19.1015 6.84451 18.9235 7.73451V7.73651L18.4235 10.1565C18.2635 10.9395 18.1535 11.4595 18.0245 11.8445C17.9015 12.2105 17.7855 12.3675 17.6605 12.4695C17.5355 12.5715 17.3575 12.6535 16.9755 12.6995C16.5715 12.7495 16.0405 12.7505 15.2415 12.7505H9.93851C8.52151 12.7505 7.53851 12.7485 6.79851 12.6435C6.08251 12.5425 5.70551 12.3585 5.43251 12.0705C5.11251 11.7325 4.93951 11.4025 4.83751 10.8075C4.72751 10.1575 4.70851 9.24951 4.70851 7.76051L4.70951 4.87051ZM6.50051 19.7505C5.90377 19.7505 5.33148 19.5135 4.90952 19.0915C4.48756 18.6695 4.25051 18.0972 4.25051 17.5005C4.25051 16.9038 4.48756 16.3315 4.90952 15.9095C5.33148 15.4876 5.90377 15.2505 6.50051 15.2505C7.09725 15.2505 7.66954 15.4876 8.0915 15.9095C8.51346 16.3315 8.75051 16.9038 8.75051 17.5005C8.75051 18.0972 8.51346 18.6695 8.0915 19.0915C7.66954 19.5135 7.09725 19.7505 6.50051 19.7505ZM5.75051 17.5005C5.75051 17.6994 5.82953 17.8902 5.97018 18.0308C6.11083 18.1715 6.3016 18.2505 6.50051 18.2505C6.69942 18.2505 6.89019 18.1715 7.03084 18.0308C7.17149 17.8902 7.25051 17.6994 7.25051 17.5005C7.25051 17.3016 7.17149 17.1108 7.03084 16.9702C6.89019 16.8295 6.69942 16.7505 6.50051 16.7505C6.3016 16.7505 6.11083 16.8295 5.97018 16.9702C5.82953 17.1108 5.75051 17.3016 5.75051 17.5005ZM15.5005 19.7505C14.9038 19.7505 14.3315 19.5135 13.9095 19.0915C13.4876 18.6695 13.2505 18.0972 13.2505 17.5005C13.2505 16.9038 13.4876 16.3315 13.9095 15.9095C14.3315 15.4876 14.9038 15.2505 15.5005 15.2505C16.0972 15.2505 16.6695 15.4876 17.0915 15.9095C17.5135 16.3315 17.7505 16.9038 17.7505 17.5005C17.7505 18.0972 17.5135 18.6695 17.0915 19.0915C16.6695 19.5135 16.0972 19.7505 15.5005 19.7505ZM14.7505 17.5005C14.7505 17.6994 14.8295 17.8902 14.9702 18.0308C15.1108 18.1715 15.3016 18.2505 15.5005 18.2505C15.6994 18.2505 15.8902 18.1715 16.0308 18.0308C16.1715 17.8902 16.2505 17.6994 16.2505 17.5005C16.2505 17.3016 16.1715 17.1108 16.0308 16.9702C15.8902 16.8295 15.6994 16.7505 15.5005 16.7505C15.3016 16.7505 15.1108 16.8295 14.9702 16.9702C14.8295 17.1108 14.7505 17.3016 14.7505 17.5005Z" fill="white"/>
</svg>
