<svg width="35" height="35" viewBox="0 0 35 35" fill="none" xmlns="http://www.w3.org/2000/svg">
<path d="M29.8958 29.8971H5.10417C4.33062 29.8971 3.58875 29.5898 3.04177 29.0429C2.49479 28.4959 2.1875 27.754 2.1875 26.9805V8.02214C2.1875 7.24859 2.49479 6.50672 3.04177 5.95974C3.58875 5.41276 4.33062 5.10547 5.10417 5.10547H29.8958C30.6694 5.10547 31.4112 5.41276 31.9582 5.95974C32.5052 6.50672 32.8125 7.24859 32.8125 8.02214V26.9805C32.8125 27.754 32.5052 28.4959 31.9582 29.0429C31.4112 29.5898 30.6694 29.8971 29.8958 29.8971ZM5.10417 6.5638C4.71739 6.5638 4.34646 6.71745 4.07297 6.99094C3.79948 7.26443 3.64583 7.63536 3.64583 8.02214V26.9805C3.64583 27.3672 3.79948 27.7382 4.07297 28.0117C4.34646 28.2852 4.71739 28.4388 5.10417 28.4388H29.8958C30.2826 28.4388 30.6535 28.2852 30.927 28.0117C31.2005 27.7382 31.3542 27.3672 31.3542 26.9805V8.02214C31.3542 7.63536 31.2005 7.26443 30.927 6.99094C30.6535 6.71745 30.2826 6.5638 29.8958 6.5638H5.10417Z" fill="#065387"/>
<path d="M32.5282 9.32487L31.3542 10.2072L28.3136 12.577L20.5553 18.6363C19.682 19.3163 18.6069 19.6855 17.5001 19.6855C16.3933 19.6855 15.3181 19.3163 14.4449 18.6363L2.47194 9.32487C2.33231 9.20259 2.24456 9.03167 2.22658 8.84694C2.2086 8.6622 2.26174 8.47757 2.37517 8.33066C2.48861 8.18375 2.6538 8.08563 2.83707 8.05629C3.02034 8.02696 3.20791 8.06862 3.36153 8.17278L15.3126 17.4988C15.9436 17.9721 16.7112 18.228 17.5001 18.228C18.2889 18.228 19.0565 17.9721 19.6876 17.4988L28.8313 10.353L31.3542 8.39153L31.6386 8.17278C31.7135 8.10721 31.801 8.05766 31.8958 8.02719C31.9905 7.99672 32.0905 7.98597 32.1896 7.99562C32.2887 8.00526 32.3847 8.03509 32.4719 8.08326C32.559 8.13143 32.6353 8.19693 32.6961 8.27572C32.757 8.3545 32.801 8.44491 32.8256 8.54137C32.8502 8.63784 32.8547 8.73831 32.839 8.8366C32.8233 8.93489 32.7876 9.02892 32.7341 9.11289C32.6807 9.19686 32.6106 9.269 32.5282 9.32487Z" fill="#065387"/>
<path d="M2.91685 26.9803C2.76503 26.9798 2.61714 26.932 2.49382 26.8434C2.3705 26.7549 2.27789 26.63 2.22892 26.4863C2.17995 26.3426 2.17705 26.1872 2.22064 26.0418C2.26422 25.8964 2.35212 25.7682 2.47206 25.6751L13.7231 16.9251C13.7963 16.8484 13.8853 16.7885 13.984 16.7497C14.0827 16.7109 14.1887 16.6942 14.2946 16.7005C14.4004 16.7069 14.5036 16.7363 14.5969 16.7867C14.6903 16.837 14.7715 16.9071 14.8349 16.9921C14.8984 17.077 14.9425 17.1748 14.9643 17.2786C14.9861 17.3824 14.985 17.4897 14.9611 17.593C14.9371 17.6963 14.8909 17.7931 14.8257 17.8768C14.7605 17.9604 14.6779 18.0288 14.5835 18.0772L3.33247 26.8272C3.21316 26.9201 3.06792 26.9736 2.91685 26.9803ZM32.0835 26.9803C31.9224 26.9798 31.766 26.926 31.6387 26.8272L20.4168 18.0772C20.3345 18.0213 20.2644 17.9492 20.2109 17.8652C20.1575 17.7812 20.1218 17.6872 20.1061 17.5889C20.0903 17.4906 20.0949 17.3901 20.1195 17.2937C20.144 17.1972 20.1881 17.1068 20.2489 17.028C20.3098 16.9492 20.3861 16.8837 20.4732 16.8356C20.5603 16.7874 20.6563 16.7576 20.7554 16.7479C20.8545 16.7383 20.9545 16.749 21.0493 16.7795C21.144 16.81 21.2315 16.8595 21.3064 16.9251L32.5575 25.6751C32.6796 25.7696 32.7685 25.9005 32.8115 26.0489C32.8544 26.1972 32.8492 26.3554 32.7965 26.5005C32.7438 26.6457 32.6463 26.7704 32.5182 26.8566C32.39 26.9428 32.2378 26.9861 32.0835 26.9803Z" fill="#065387"/>
<path opacity="0.5" d="M22.7571 22.0268C20.7285 24.0612 18.3179 25.6746 15.6638 26.7745C13.0097 27.8745 10.1645 28.4392 7.2915 28.4362H31.354V10.207L28.3134 12.5768C27.297 16.1489 25.3844 19.4019 22.7571 22.0268Z" fill="#065387"/>
</svg>
