<svg width="35" height="35" viewBox="0 0 35 35" fill="none" xmlns="http://www.w3.org/2000/svg">
<g clip-path="url(#clip0_1102_8300)">
<path d="M0 26.0972V26.0987C0.0209633 26.8757 0.0274294 27.6571 0.158586 28.4293C0.297571 29.2462 0.496246 30.0428 0.875288 30.7842C1.38773 31.7877 2.0915 32.6352 2.97986 33.3274C3.61767 33.8245 4.31443 34.2191 5.08572 34.468C6.21039 34.8305 7.37066 34.9694 8.54787 34.9762C9.28234 34.9808 10.0163 34.9992 10.7511 34.9961C16.0868 34.9737 21.4228 35.0346 26.7587 34.9632C27.4667 34.9536 28.1632 34.8673 28.8582 34.7404C30.1901 34.4968 31.3672 33.9289 32.3743 33.0311C33.5481 31.9851 34.34 30.7049 34.6975 29.1598C34.9314 28.1499 34.9899 27.1253 34.9999 26.097V25.8919C34.9999 25.8124 34.9696 8.42113 34.9669 8.19127C34.959 7.55981 34.9125 6.93311 34.794 6.31179C34.6499 5.55465 34.4463 4.8169 34.0835 4.13192C33.7003 3.40824 33.2204 2.75753 32.6269 2.18892C31.7176 1.31773 30.6684 0.701642 29.4468 0.375746C28.3435 0.0814741 27.218 0.0163221 26.0842 0.0173422C26.0823 0.0170702 26.0781 0.00557668 26.0778 0H8.9167C8.91636 0.00584872 8.91616 0.0116975 8.91575 0.0173422C8.27228 0.0291076 7.62787 0.0242789 6.98767 0.103577C6.28635 0.190695 5.59177 0.321883 4.92795 0.56685C3.88237 0.953273 2.97394 1.55515 2.19795 2.35867C1.31878 3.26903 0.699073 4.32186 0.370262 5.54785C0.0769111 6.6417 0.0130685 7.7573 0.011503 8.8808" fill="#FFFC00"/>
<path d="M17.6588 29.5282C17.5861 29.5282 17.5167 29.5255 17.464 29.523C17.4221 29.5266 17.3789 29.5282 17.3356 29.5282C15.8085 29.5282 14.7874 28.8068 13.8863 28.1699C13.2405 27.714 12.6314 27.2837 11.9178 27.165C11.5674 27.107 11.2187 27.0775 10.8819 27.0775C10.275 27.0775 9.79534 27.1716 9.44516 27.24C9.22967 27.282 9.04386 27.3181 8.90025 27.3181C8.74983 27.3181 8.56708 27.2847 8.49092 27.0249C8.43055 26.8199 8.38726 26.6213 8.34547 26.4301C8.24093 25.9522 8.1651 25.6605 7.98603 25.6328C6.07067 25.3375 4.939 24.9025 4.71357 24.3758C4.69066 24.3231 4.67721 24.2669 4.67382 24.2096C4.66957 24.1339 4.69348 24.0593 4.74093 24.0002C4.78838 23.9411 4.85604 23.9015 4.9309 23.8892C6.45196 23.6389 7.80444 22.8356 8.95096 21.5008C9.83911 20.4674 10.2753 19.4801 10.3221 19.3711C10.3242 19.3661 10.3265 19.3611 10.329 19.3563C10.55 18.9083 10.5939 18.5211 10.46 18.2059C10.2132 17.6244 9.39588 17.3652 8.85512 17.1938C8.72063 17.1513 8.59342 17.111 8.49208 17.0708C8.01271 16.8816 7.22434 16.4819 7.32936 15.9301C7.40586 15.5278 7.93845 15.2476 8.36888 15.2476C8.4884 15.2476 8.59431 15.2685 8.68347 15.3104C9.16985 15.5381 9.60742 15.6535 9.98374 15.6535C10.4517 15.6535 10.6778 15.4754 10.7324 15.4248C10.7183 15.1695 10.7029 14.9141 10.6862 14.6589C10.5764 12.9128 10.4394 10.7398 10.9956 9.49369C12.6606 5.76363 16.1915 5.47358 17.2337 5.47358C17.4057 5.47214 17.5777 5.47053 17.7497 5.46875C18.7947 5.46875 22.333 5.75915 23.999 9.49144C24.5552 10.7384 24.4181 12.9132 24.3079 14.6612L24.3027 14.7448C24.2876 14.9822 24.2737 15.2068 24.2619 15.4246C24.3133 15.4719 24.5202 15.6351 24.941 15.6516C25.2998 15.6379 25.712 15.523 26.166 15.3106C26.3064 15.2448 26.4617 15.2311 26.5672 15.2311C26.7267 15.2311 26.889 15.2622 27.0242 15.3185L27.0314 15.3213C27.4167 15.458 27.669 15.731 27.6744 16.0179C27.6793 16.2853 27.4804 16.685 26.5022 17.071C26.402 17.1106 26.2742 17.1512 26.1391 17.1939C25.5979 17.3656 24.7812 17.6246 24.5344 18.2058C24.4003 18.521 24.4444 18.908 24.6655 19.3559C24.668 19.3608 24.6701 19.3658 24.6724 19.3709C24.7405 19.5304 26.388 23.2838 30.0636 23.8889C30.1385 23.9012 30.2061 23.9408 30.2535 23.9999C30.301 24.059 30.3249 24.1336 30.3208 24.2093C30.3172 24.2671 30.3034 24.3239 30.2801 24.3769C30.0562 24.9008 28.9246 25.3351 27.0087 25.6308C26.8289 25.6586 26.7531 25.949 26.6495 26.4244C26.6067 26.6207 26.563 26.8132 26.5035 27.0154C26.4477 27.2056 26.3237 27.2986 26.1246 27.2986H26.0945C25.9649 27.2986 25.7812 27.2751 25.5495 27.2298C25.1445 27.151 24.6903 27.0777 24.1128 27.0777C23.776 27.0777 23.4274 27.1072 23.0766 27.1653C22.3638 27.2839 21.7547 27.7135 21.11 28.1689C20.2072 28.8068 19.1858 29.5282 17.6588 29.5282Z" fill="white"/>
<path d="M17.7495 5.77872C18.7333 5.77872 22.1212 6.0428 23.7177 9.61929C24.2435 10.797 24.1087 12.9303 24.0006 14.6441C23.9837 14.9161 23.967 15.1797 23.9534 15.4314L23.9477 15.5396L24.0199 15.6201C24.0491 15.6525 24.3224 15.9379 24.9302 15.9613L24.94 15.9619L24.9502 15.9617C25.3521 15.9464 25.8047 15.8217 26.2962 15.5916C26.3687 15.5577 26.465 15.5412 26.567 15.5412C26.6832 15.5412 26.8066 15.563 26.9085 15.6059L26.9238 15.612C27.1816 15.7022 27.3638 15.8724 27.3666 16.0264C27.3681 16.1134 27.303 16.427 26.3893 16.7876C26.3 16.8229 26.1824 16.8603 26.0462 16.9033C25.4516 17.0919 24.5533 17.3766 24.2509 18.0884C24.0807 18.4894 24.1273 18.9626 24.3894 19.4947C24.4972 19.7461 26.1944 23.566 30.0135 24.1948C30.0122 24.216 30.0069 24.2368 29.9979 24.256C29.9332 24.4084 29.5217 24.9347 26.9615 25.3294C26.5609 25.3908 26.4627 25.8395 26.3489 26.3611C26.3078 26.5479 26.266 26.7364 26.2086 26.9311C26.191 26.9899 26.1877 26.9932 26.1246 26.9932H26.0946C25.981 26.9932 25.8087 26.9697 25.6089 26.9305C25.2451 26.8597 24.7481 26.7729 24.1128 26.7729C23.7582 26.7729 23.3929 26.8037 23.0264 26.8648C22.2429 26.995 21.6058 27.4453 20.931 27.9219C20.0248 28.5617 19.0882 29.2238 17.6591 29.2238C17.5967 29.2238 17.5358 29.2217 17.4748 29.2186L17.4587 29.2179L17.4426 29.2192C17.4075 29.2222 17.3722 29.2238 17.3361 29.2238C15.9073 29.2238 14.9702 28.5619 14.0645 27.9219C13.3896 27.4453 12.7521 26.995 11.9687 26.8648C11.6026 26.8039 11.2369 26.7729 10.8825 26.7729C10.2473 26.7729 9.74969 26.87 9.38665 26.9409C9.18688 26.98 9.01393 27.0134 8.90075 27.0134C8.80804 27.0134 8.80628 27.008 8.78667 26.9411C8.72923 26.7462 8.68723 26.5532 8.64633 26.3668C8.53225 25.8446 8.43404 25.3934 8.03363 25.332C5.47358 24.9369 5.06207 24.4097 4.99714 24.2578C4.98831 24.2381 4.98299 24.2169 4.98142 24.1954C8.80042 23.5671 10.4973 19.7471 10.6054 19.4947C10.868 18.963 10.9145 18.4899 10.7438 18.0884C10.4414 17.377 9.54326 17.0919 8.94907 16.9036C8.81247 16.8604 8.69485 16.8229 8.60549 16.7876C7.83393 16.483 7.59659 16.1762 7.63185 15.9902C7.67276 15.7758 8.04479 15.5578 8.36945 15.5578C8.44241 15.5578 8.50639 15.5695 8.55369 15.5916C9.08098 15.8386 9.56232 15.9638 9.98451 15.9638C10.6482 15.9638 10.9436 15.6552 10.9753 15.62L11.0472 15.5396L11.0415 15.432C11.028 15.1804 11.0115 14.9169 10.9941 14.6454C10.8863 12.9313 10.7516 10.7994 11.2771 9.6216C12.8677 6.05824 16.2391 5.78355 17.2343 5.78355C17.2588 5.78355 17.6915 5.77913 17.6915 5.77913C17.7092 5.77899 17.7288 5.77872 17.7495 5.77872ZM17.7495 5.16406H17.7483C17.7256 5.16406 17.7043 5.16406 17.684 5.16433L17.2326 5.16882C16.6496 5.16882 15.483 5.25111 14.23 5.80375C13.5136 6.11951 12.8691 6.54647 12.3147 7.07278C11.6537 7.69989 11.1152 8.47308 10.7144 9.3712C10.1275 10.6862 10.2668 12.9012 10.3787 14.6812L10.3791 14.6839C10.3911 14.8746 10.4037 15.0736 10.4152 15.2676C10.3291 15.3071 10.1895 15.3488 9.98376 15.3488C9.6527 15.3488 9.25903 15.243 8.81397 15.0347C8.68301 14.9737 8.53355 14.9429 8.36863 14.9429C8.10366 14.9429 7.82433 15.0209 7.58203 15.1632C7.27718 15.3421 7.0802 15.5948 7.0267 15.8751C6.99145 16.0605 6.99315 16.4269 7.40051 16.7985C7.62457 17.0031 7.95372 17.1917 8.37857 17.3595C8.49006 17.4034 8.62237 17.4453 8.76251 17.4897C9.24882 17.6441 9.98485 17.8775 10.1768 18.3288C10.274 18.5577 10.2322 18.8588 10.0527 19.2228C10.048 19.2327 10.0433 19.2425 10.039 19.2527C9.99417 19.3573 9.57572 20.3044 8.71738 21.3033C8.22965 21.8713 7.69243 22.346 7.12152 22.7146C6.42469 23.1646 5.67069 23.4588 4.88069 23.5888C4.7309 23.6134 4.5955 23.6924 4.50053 23.8108C4.40555 23.9291 4.35771 24.0783 4.3662 24.2297C4.37151 24.3202 4.39274 24.4104 4.42956 24.4976L4.43045 24.4992C4.55589 24.7924 4.84672 25.0414 5.31955 25.2611C5.89734 25.5292 6.76146 25.7548 7.8877 25.9313C7.9446 26.0394 8.00368 26.3112 8.04458 26.4973C8.08739 26.695 8.13204 26.8984 8.19568 27.1144C8.26436 27.3484 8.44248 27.628 8.90006 27.628C9.07349 27.628 9.27291 27.589 9.50385 27.5443C9.84205 27.4779 10.3045 27.3875 10.8818 27.3875C11.2018 27.3875 11.5335 27.4156 11.8673 27.4711C12.5109 27.5781 13.0656 27.9697 13.7075 28.4232C14.6471 29.0868 15.7106 29.838 17.3354 29.838C17.3797 29.838 17.4242 29.8365 17.4681 29.8335C17.5218 29.836 17.5883 29.838 17.6586 29.838C19.2839 29.838 20.3471 29.0865 21.2857 28.4235L21.2872 28.4221C21.9292 27.9692 22.4834 27.5781 23.1267 27.4711C23.4604 27.4157 23.792 27.3875 24.1122 27.3875C24.6636 27.3875 25.1002 27.4577 25.4901 27.5337C25.7445 27.5838 25.9422 27.6078 26.094 27.6078L26.1088 27.6081H26.1242C26.4588 27.6081 26.7047 27.4246 26.7986 27.1034C26.861 26.8919 26.9055 26.6933 26.9494 26.4922C26.9876 26.3179 27.0487 26.0383 27.1056 25.9291C28.2326 25.7522 29.0964 25.5271 29.6743 25.259C30.146 25.0404 30.4365 24.7916 30.5627 24.4997C30.6005 24.4121 30.6226 24.3214 30.6276 24.229C30.6361 24.0776 30.5883 23.9284 30.4933 23.81C30.3983 23.6917 30.2629 23.6127 30.1131 23.5881C26.602 23.0099 25.0203 19.4052 24.9549 19.2521C24.9506 19.242 24.946 19.232 24.941 19.2223C24.7615 18.8582 24.72 18.5574 24.8174 18.3281C25.0089 17.8771 25.7444 17.6438 26.2311 17.4894C26.372 17.4451 26.5048 17.4029 26.6154 17.3593C27.0945 17.1702 27.4369 16.9651 27.6628 16.7321C27.9326 16.4545 27.9851 16.1884 27.9819 16.0143C27.9736 15.5931 27.6514 15.2188 27.1387 15.0355C26.9656 14.9639 26.7681 14.9262 26.5671 14.9262C26.4302 14.9262 26.2275 14.945 26.0356 15.0345C25.6249 15.2265 25.2569 15.3315 24.941 15.3465C24.7731 15.338 24.6552 15.3016 24.5789 15.2668C24.5885 15.1025 24.5992 14.9337 24.6101 14.7577L24.6147 14.6824C24.7272 12.9012 24.867 10.6846 24.2798 9.36861C23.8774 8.4673 23.3369 7.69214 22.6733 7.06367C22.1166 6.53701 21.47 6.11013 20.751 5.79457C19.4998 5.24601 18.3333 5.16406 17.7495 5.16406Z" fill="#020202"/>
</g>
<defs>
<clipPath id="clip0_1102_8300">
<rect width="35" height="35" fill="white"/>
</clipPath>
</defs>
</svg>
