<svg width="35" height="35" viewBox="0 0 35 35" fill="none" xmlns="http://www.w3.org/2000/svg">
<path d="M33.2227 26.8378C33.2227 30.3495 30.3495 33.2227 26.8378 33.2227H8.16218C4.65049 33.2227 1.77734 30.3495 1.77734 26.8378V8.16218C1.77734 4.65056 4.65049 1.77734 8.16218 1.77734H26.8378C30.3495 1.77734 33.2227 4.65056 33.2227 8.16218V26.8378Z" fill="#41464A"/>
<path d="M19.8535 15.9313L27.4175 6.50391H25.2266L18.7584 14.5662L12.2896 6.50391H5.06738L15.147 19.067L7.58232 28.4951H9.77324L16.2421 20.4321L22.7116 28.4951H29.9338L19.8535 15.9313ZM8.62891 8.21282H11.4692L26.3716 26.7861H23.5312L8.62891 8.21282Z" fill="#F0F0F1"/>
</svg>
